<?xml version="1.0" encoding="UTF-8"?>
<svg version="1.1" xmlns="http://www.w3.org/2000/svg" width="52" height="30">
<path d="M0 0 C17.16 0 34.32 0 52 0 C52 9.9 52 19.8 52 30 C34.84 30 17.68 30 0 30 C0 20.1 0 10.2 0 0 Z " fill="#FFFBFB" transform="translate(0,0)"/>
<path d="M0 0 C7.92 0 15.84 0 24 0 C24 4.62 24 9.24 24 14 C20.18745377 14.02682792 16.37509388 14.04675477 12.5625 14.0625 C11.47388672 14.07087891 10.38527344 14.07925781 9.26367188 14.08789062 C8.22919922 14.09111328 7.19472656 14.09433594 6.12890625 14.09765625 C4.69140015 14.10551147 4.69140015 14.10551147 3.22485352 14.11352539 C1 14 1 14 0 13 C-0.14393457 8.66469082 -0.04212061 4.33842269 0 0 Z " fill="#FF0303" transform="translate(16,8)"/>
<path d="M0 0 C3.3 0 6.6 0 10 0 C10 2.64 10 5.28 10 8 C10.66 8 11.32 8 12 8 C12 8.99 12 9.98 12 11 C6.06 11.495 6.06 11.495 0 12 C0 8.04 0 4.08 0 0 Z " fill="#FF0202" transform="translate(16,8)"/>
<path d="M0 0 C1.98 1.65 3.96 3.3 6 5 C5.01 5.495 5.01 5.495 4 6 C4.33 6.99 4.66 7.98 5 9 C7.64 9.33 10.28 9.66 13 10 C13 10.66 13 11.32 13 12 C6.4 12 -0.2 12 -7 12 C-7 11.34 -7 10.68 -7 10 C-3.7 10 -0.4 10 3 10 C3 9.01 3 8.02 3 7 C2.01 7.33 1.02 7.66 0 8 C0 5.36 0 2.72 0 0 Z " fill="#FF8282" transform="translate(25,9)"/>
<path d="M0 0 C1.98 1.65 3.96 3.3 6 5 C5.01 5.495 5.01 5.495 4 6 C4.33 6.99 4.66 7.98 5 9 C4.34 9 3.68 9 3 9 C3 8.34 3 7.68 3 7 C2.01 7.33 1.02 7.66 0 8 C0 5.36 0 2.72 0 0 Z " fill="#FFDFDF" transform="translate(25,9)"/>
</svg>
