<?xml version="1.0" encoding="UTF-8"?>
<svg version="1.1" xmlns="http://www.w3.org/2000/svg" width="68" height="68">
<path d="M0 0 C22.44 0 44.88 0 68 0 C68 22.44 68 44.88 68 68 C45.56 68 23.12 68 0 68 C0 45.56 0 23.12 0 0 Z " fill="#6D6D6D" transform="translate(0,0)"/>
<path d="M0 0 C22.44 0 44.88 0 68 0 C68 9.24 68 18.48 68 28 C64.1946875 27.071875 64.1946875 27.071875 60.3125 26.125 C59.12781128 25.83906982 59.12781128 25.83906982 57.91918945 25.54736328 C54.1438009 24.61461461 50.57504087 23.56540251 47 22 C47 21.34 47 20.68 47 20 C47.66 20 48.32 20 49 20 C49 15.38 49 10.76 49 6 C48.01 6 47.02 6 46 6 C45.67 7.65 45.34 9.3 45 11 C44.34 10.34 43.68 9.68 43 9 C43 8.01 43 7.02 43 6 C42.443125 6.185625 41.88625 6.37125 41.3125 6.5625 C38.600867 7.07551165 36.65628961 6.6640724 34 6 C34 8.97 34 11.94 34 15 C33.01 14.67 32.02 14.34 31 14 C31 11.69 31 9.38 31 7 C30.34 7 29.68 7 29 7 C29 8.98 29 10.96 29 13 C22.25 13.125 22.25 13.125 20 12 C20 10.35 20 8.7 20 7 C20.66 7.33 21.32 7.66 22 8 C22.33 7.34 22.66 6.68 23 6 C21.68 6.33 20.36 6.66 19 7 C18.65099442 10.71736641 18.65099442 10.71736641 20.5 13.8125 C20.995 14.204375 21.49 14.59625 22 15 C20.68 15.33 19.36 15.66 18 16 C18.2475 16.83337891 18.2475 16.83337891 18.5 17.68359375 C19.05007236 20.23197587 19.06137823 22.45776149 19 25.0625 C18.97319164 29.05694626 19.04251646 33.01377241 19.3125 37 C19.37050781 37.886875 19.42851562 38.77375 19.48828125 39.6875 C20.08304354 42.37528072 20.99707168 43.19575358 23 45 C23 45.66 23 46.32 23 47 C22.41992188 47.05414063 21.83984375 47.10828125 21.2421875 47.1640625 C18.34449195 47.72830025 16.48210196 48.36278291 14 50 C10.67352928 55.56465163 8.39813691 61.66072015 7 68 C4.69 68 2.38 68 0 68 C0 45.56 0 23.12 0 0 Z " fill="#E2E2E2" transform="translate(0,0)"/>
<path d="M0 0 C1.32 0 2.64 0 4 0 C3.67 0.99 3.34 1.98 3 3 C2.67 2.67 2.34 2.34 2 2 C1.67 3.32 1.34 4.64 1 6 C4.3 6.33 7.6 6.66 11 7 C11.33 8.65 11.66 10.3 12 12 C12.99 12.33 13.98 12.66 15 13 C15 13.66 15 14.32 15 15 C14.31292969 14.95359375 13.62585938 14.9071875 12.91796875 14.859375 C12.01691406 14.82328125 11.11585937 14.7871875 10.1875 14.75 C8.84751953 14.68039063 8.84751953 14.68039063 7.48046875 14.609375 C4.86245866 14.76363625 4.86245866 14.76363625 3.21875 16.875 C2.03080754 18.94628429 1.41791677 20.65966606 1 23 C1.66 23 2.32 23 3 23 C3.33 22.01 3.66 21.02 4 20 C5.55617382 19.57998415 7.12046054 19.18996206 8.6875 18.8125 C9.55761719 18.59207031 10.42773438 18.37164063 11.32421875 18.14453125 C14.73513685 17.96029188 16.26970898 19.04698102 19 21 C18.85691406 22.80017578 18.85691406 22.80017578 18.7109375 24.63671875 C17.82192063 37.37972405 18.5413295 49.30098623 20 62 C9.44 62 -1.12 62 -12 62 C-10.76932559 54.61595352 -9.24236007 46.38214209 -2.9375 41.75 C0 41 0 41 4 41 C4 40.34 4 39.68 4 39 C3.01 38.67 2.02 38.34 1 38 C-1.99617409 32.00765181 -1.13519095 23.50853639 -1.25 16.9375 C-1.27578125 15.66777344 -1.3015625 14.39804687 -1.328125 13.08984375 C-1.21984375 12.07019531 -1.1115625 11.05054688 -1 10 C-0.01 9.34 0.98 8.68 2 8 C1.01 7.34 0.02 6.68 -1 6 C-1.25 3.4375 -1.25 3.4375 -1 1 C-0.67 0.67 -0.34 0.34 0 0 Z " fill="#151515" transform="translate(19,6)"/>
<path d="M0 0 C0 4.62 0 9.24 0 14 C0.99 14 1.98 14 3 14 C3.33 13.34 3.66 12.68 4 12 C4 12.99 4 13.98 4 15 C5.65 14.67 7.3 14.34 9 14 C9 12.02 9 10.04 9 8 C9.33 8 9.66 8 10 8 C10 10.97 10 13.94 10 17 C11.32 16.67 12.64 16.34 14 16 C14.06058594 16.63808594 14.12117188 17.27617187 14.18359375 17.93359375 C14.30927734 19.17302734 14.30927734 19.17302734 14.4375 20.4375 C14.51871094 21.26121094 14.59992187 22.08492187 14.68359375 22.93359375 C14.78930815 24.98662025 14.78930815 24.98662025 16 26 C16.24420122 28.77665837 16.38388187 31.55216999 16.5234375 34.3359375 C17.0580802 37.32467786 17.77564499 38.06112371 20 40 C20 40.66 20 41.32 20 42 C19.41992188 42.05414063 18.83984375 42.10828125 18.2421875 42.1640625 C15.34449195 42.72830025 13.48210196 43.36278291 11 45 C7.67352928 50.56465163 5.39813691 56.66072015 4 63 C1.69 63 -0.62 63 -3 63 C-3 42.54 -3 22.08 -3 1 C-1 0 -1 0 0 0 Z " fill="#E8E8E8" transform="translate(3,5)"/>
<path d="M0 0 C6.625 -0.25 6.625 -0.25 10 2 C10.266487 5.05075084 10.34757146 7.89626179 10.29296875 10.9453125 C10.28872391 11.8303244 10.28447906 12.7153363 10.28010559 13.62716675 C10.26328259 16.46008445 10.22562425 19.29229652 10.1875 22.125 C10.17245782 24.04295849 10.15876861 25.96092811 10.14648438 27.87890625 C10.11591604 32.58642952 10.05720278 37.29242291 10 42 C0.76 42 -8.48 42 -18 42 C-18.4375 35.0625 -18.4375 35.0625 -18.57910156 32.79492188 C-18.81594322 29.18821507 -19.15889755 25.63685939 -19.6875 22.0625 C-20.23855606 17.67075015 -19.29971118 14.20494794 -18 10 C-17.67 10 -17.34 10 -17 10 C-16.34 12.31 -15.68 14.62 -15 17 C-11.8034943 17.97608915 -9.13610362 17.9899507 -5.8125 17.8125 C-0.07434383 17.72766167 4.02809532 19.25010704 9 22 C8.77183594 21.39671875 8.54367188 20.7934375 8.30859375 20.171875 C7.87740234 18.97304688 7.87740234 18.97304688 7.4375 17.75 C7.14746094 16.96109375 6.85742188 16.1721875 6.55859375 15.359375 C5.95477163 12.80896548 6.1526068 11.44677771 7 9 C6.34 9 5.68 9 5 9 C5 8.01 5 7.02 5 6 C2.525 5.505 2.525 5.505 0 5 C0 3.35 0 1.7 0 0 Z " fill="#1F1F1F" transform="translate(58,26)"/>
<path d="M0 0 C3.99969431 2.88866811 6.34067722 5.87346465 9 10 C9.66 10.33 10.32 10.66 11 11 C11.64906175 13.55456413 12.17255147 16.03496303 12.625 18.625 C12.7590625 19.32496094 12.893125 20.02492188 13.03125 20.74609375 C13.87096043 25.36450113 14 29.14432011 14 34 C5.42 34 -3.16 34 -12 34 C-10.76932559 26.61595352 -9.24236007 18.38214209 -2.9375 13.75 C-0 13 -0 13 4 13 C4 12.34 4 11.68 4 11 C3.01 10.67 2.02 10.34 1 10 C-0.60725635 6.78548731 -0.05748185 3.56387464 0 0 Z " fill="#171717" transform="translate(19,34)"/>
<path d="M0 0 C6.75 -0.125 6.75 -0.125 9 1 C9 2.32 9 3.64 9 5 C9.33 4.67 9.66 4.34 10 4 C15.19040052 3.50567614 18.42102388 4.80209146 23 7 C23 7.99 23 8.98 23 10 C23.66 10 24.32 10 25 10 C25.06058594 10.60328125 25.12117188 11.2065625 25.18359375 11.828125 C25.30927734 13.02695312 25.30927734 13.02695312 25.4375 14.25 C25.55931641 15.43335938 25.55931641 15.43335938 25.68359375 16.640625 C25.97634993 18.82364639 26.42064419 20.8773182 27 23 C24.78302514 22.50733892 22.87423641 21.94071145 20.8125 20.96875 C17.31153334 19.76286148 14.38145979 19.80595402 10.6875 19.875 C9.43324219 19.89304687 8.17898437 19.91109375 6.88671875 19.9296875 C5.45779297 19.96449219 5.45779297 19.96449219 4 20 C2.09391902 16.78817851 1.77733753 14.46117397 1.875 10.75 C1.90207031 9.41195312 1.90207031 9.41195312 1.9296875 8.046875 C1.95289063 7.37140625 1.97609375 6.6959375 2 6 C1.34 6 0.68 6 0 6 C0 4.02 0 2.04 0 0 Z " fill="#F3F3F3" transform="translate(40,25)"/>
<path d="M0 0 C6.625 -0.25 6.625 -0.25 10 2 C10.26653946 4.9795099 10.34767784 7.7488582 10.29296875 10.7265625 C10.28872391 11.58937836 10.28447906 12.45219421 10.28010559 13.34115601 C10.26328392 16.10275197 10.22562598 18.86362383 10.1875 21.625 C10.17245764 23.49478114 10.15876846 25.3645737 10.14648438 27.234375 C10.11336906 31.82319658 10.06156339 36.41147544 10 41 C8.02 41 6.04 41 4 41 C4 40.01 4 39.02 4 38 C3.34 37.67 2.68 37.34 2 37 C1.375 34.4375 1.375 34.4375 1 32 C0.34 32 -0.32 32 -1 32 C-1.33 32.66 -1.66 33.32 -2 34 C-1.67 29.71 -1.34 25.42 -1 21 C2.93670488 19.68776504 5.12488144 20.75703744 9 22 C8.65775391 21.09507813 8.65775391 21.09507813 8.30859375 20.171875 C8.02113281 19.37265625 7.73367187 18.5734375 7.4375 17.75 C7.14746094 16.96109375 6.85742188 16.1721875 6.55859375 15.359375 C5.95477163 12.80896548 6.1526068 11.44677771 7 9 C6.34 9 5.68 9 5 9 C5 8.01 5 7.02 5 6 C3.35 5.67 1.7 5.34 0 5 C0 3.35 0 1.7 0 0 Z " fill="#131313" transform="translate(58,26)"/>
<path d="M0 0 C3.99969431 2.88866811 6.34067722 5.87346465 9 10 C9.66 10.33 10.32 10.66 11 11 C11.64906175 13.55456413 12.17255147 16.03496303 12.625 18.625 C12.7590625 19.32496094 12.893125 20.02492188 13.03125 20.74609375 C13.84718807 25.23375316 14.13163017 29.44080941 14 34 C9.71 34 5.42 34 1 34 C-2 25.25 -2 25.25 -2 23 C-1.01 22.67 -0.02 22.34 1 22 C0.01 21.67 -0.98 21.34 -2 21 C1.70082097 20.24301389 4.38592751 19.83833384 8 21 C8.66 21 9.32 21 10 21 C9.77139942 19.53815942 9.51629608 18.08044581 9.25 16.625 C9.11078125 15.81289063 8.9715625 15.00078125 8.828125 14.1640625 C8.18277236 11.8613633 8.18277236 11.8613633 6.109375 10.7109375 C3.89718066 9.84030762 3.89718066 9.84030762 1 10 C-0.60725635 6.78548731 -0.05748185 3.56387464 0 0 Z " fill="#1C1C1C" transform="translate(19,34)"/>
<path d="M0 0 C3.3 0 6.6 0 10 0 C10 1.65 10 3.3 10 5 C10.99 5 11.98 5 13 5 C13 7.31 13 9.62 13 12 C13.66 12 14.32 12 15 12 C15 10.02 15 8.04 15 6 C15.66 6 16.32 6 17 6 C17 9.96 17 13.92 17 18 C17.66 18 18.32 18 19 18 C18.67 21.96 18.34 25.92 18 30 C17.67 30 17.34 30 17 30 C16.67 27.36 16.34 24.72 16 22 C15.01 22 14.02 22 13 22 C12.67 21.01 12.34 20.02 12 19 C11.2575 19.185625 10.515 19.37125 9.75 19.5625 C7.00822361 19.9986917 5.60701799 19.75202442 3 19 C2.95101563 18.14535156 2.90203125 17.29070313 2.8515625 16.41015625 C2.77679688 15.30542969 2.70203125 14.20070313 2.625 13.0625 C2.55539062 11.96035156 2.48578125 10.85820312 2.4140625 9.72265625 C2.27742187 8.82417969 2.14078125 7.92570313 2 7 C1.34 6.67 0.68 6.34 0 6 C0 4.02 0 2.04 0 0 Z " fill="#C6C6C6" transform="translate(0,0)"/>
<path d="M0 0 C0.99 0 1.98 0 3 0 C3.66 1.32 4.32 2.64 5 4 C5.33 2.68 5.66 1.36 6 0 C6.99 0 7.98 0 9 0 C9 4.62 9 9.24 9 14 C8.34 14 7.68 14 7 14 C7 14.66 7 15.32 7 16 C7.639375 16.12375 8.27875 16.2475 8.9375 16.375 C12.97011276 17.1979822 16.98423907 18.09885975 21 19 C20.01 19.33 19.02 19.66 18 20 C18 21.32 18 22.64 18 24 C15.36 23.67 12.72 23.34 10 23 C9.67 23.66 9.34 24.32 9 25 C8.67 24.01 8.34 23.02 8 22 C8.33 21.34 8.66 20.68 9 20 C5.7 20 2.4 20 -1 20 C-1.66 17.69 -2.32 15.38 -3 13 C-2.34 13 -1.68 13 -1 13 C-1.01160156 12.14535156 -1.02320313 11.29070313 -1.03515625 10.41015625 C-1.04417969 9.30542969 -1.05320313 8.20070313 -1.0625 7.0625 C-1.07410156 5.96035156 -1.08570313 4.85820312 -1.09765625 3.72265625 C-1 1 -1 1 0 0 Z " fill="#D7D7D7" transform="translate(40,6)"/>
<path d="M0 0 C0.91644287 0.00523682 1.83288574 0.01047363 2.77709961 0.01586914 C3.76645508 0.0190918 4.75581055 0.02231445 5.77514648 0.02563477 C6.81606445 0.03401367 7.85698242 0.04239258 8.92944336 0.05102539 C10.49662109 0.05779297 10.49662109 0.05779297 12.09545898 0.06469727 C14.68600996 0.07652627 17.27644895 0.0930085 19.86694336 0.11352539 C20.19694336 1.76352539 20.52694336 3.41352539 20.86694336 5.11352539 C18.88694336 5.11352539 16.90694336 5.11352539 14.86694336 5.11352539 C14.86694336 5.77352539 14.86694336 6.43352539 14.86694336 7.11352539 C15.52694336 7.11352539 16.18694336 7.11352539 16.86694336 7.11352539 C16.86694336 9.09352539 16.86694336 11.07352539 16.86694336 13.11352539 C10.11694336 13.23852539 10.11694336 13.23852539 7.86694336 12.11352539 C7.86694336 10.46352539 7.86694336 8.81352539 7.86694336 7.11352539 C8.52694336 7.44352539 9.18694336 7.77352539 9.86694336 8.11352539 C10.19694336 7.45352539 10.52694336 6.79352539 10.86694336 6.11352539 C9.54694336 6.44352539 8.22694336 6.77352539 6.86694336 7.11352539 C6.51793778 10.8308918 6.51793778 10.8308918 8.36694336 13.92602539 C8.86194336 14.31790039 9.35694336 14.70977539 9.86694336 15.11352539 C9.22756836 15.23727539 8.58819336 15.36102539 7.92944336 15.48852539 C7.24881836 15.69477539 6.56819336 15.90102539 5.86694336 16.11352539 C5.53694336 16.77352539 5.20694336 17.43352539 4.86694336 18.11352539 C4.86694336 14.15352539 4.86694336 10.19352539 4.86694336 6.11352539 C4.20694336 6.11352539 3.54694336 6.11352539 2.86694336 6.11352539 C2.86694336 8.09352539 2.86694336 10.07352539 2.86694336 12.11352539 C2.20694336 12.11352539 1.54694336 12.11352539 0.86694336 12.11352539 C0.86694336 9.80352539 0.86694336 7.49352539 0.86694336 5.11352539 C-0.12305664 5.11352539 -1.11305664 5.11352539 -2.13305664 5.11352539 C-2.69555664 3.17602539 -2.69555664 3.17602539 -3.13305664 1.11352539 C-2.13305664 0.11352539 -2.13305664 0.11352539 0 0 Z " fill="#E7E7E7" transform="translate(12.133056640625,-0.113525390625)"/>
<path d="M0 0 C2.67927341 4.01891012 2.15601248 6.24161923 2 11 C2.99 11 3.98 11 5 11 C4.979375 9.88625 4.95875 8.7725 4.9375 7.625 C5 4 5 4 6 2 C7.32 2 8.64 2 10 2 C10 7.94 10 13.88 10 20 C7.463125 19.38125 4.92625 18.7625 2.3125 18.125 C1.12781128 17.83906982 1.12781128 17.83906982 -0.08081055 17.54736328 C-3.8561991 16.61461461 -7.42495913 15.56540251 -11 14 C-11 13.34 -11 12.68 -11 12 C-8 11 -8 11 -5 12 C-4.67 11.34 -4.34 10.68 -4 10 C-4 10.66 -4 11.32 -4 12 C-2.68 12 -1.36 12 0 12 C0 8.04 0 4.08 0 0 Z " fill="#E2E2E2" transform="translate(58,8)"/>
<path d="M0 0 C1.32 0 2.64 0 4 0 C4.33 1.32 4.66 2.64 5 4 C5.33 3.01 5.66 2.02 6 1 C6.66 1 7.32 1 8 1 C7.34 5.29 6.68 9.58 6 14 C5.34 14 4.68 14 4 14 C3.67 11.36 3.34 8.72 3 6 C2.67 8.97 2.34 11.94 2 15 C-0.64 15 -3.28 15 -6 15 C-6 10.38 -6 5.76 -6 1 C-5.34 1 -4.68 1 -4 1 C-3.34 2.32 -2.68 3.64 -2 5 C-1.34 3.35 -0.68 1.7 0 0 Z " fill="#BABABA" transform="translate(56,5)"/>
<path d="M0 0 C1.65 0 3.3 0 5 0 C5 2.64 5 5.28 5 8 C5.66 8.33 6.32 8.66 7 9 C7 6.03 7 3.06 7 0 C8.65 0 10.3 0 12 0 C12 4.29 12 8.58 12 13 C11.34 13 10.68 13 10 13 C10 14.98 10 16.96 10 19 C9.67 18.34 9.34 17.68 9 17 C8.34 17 7.68 17 7 17 C7 15.68 7 14.36 7 13 C5.68 12.67 4.36 12.34 3 12 C2.12132271 8.26562152 1.91087781 4.83225427 2 1 C1.34 0.67 0.68 0.34 0 0 Z " fill="#151515" transform="translate(27,6)"/>
<path d="M0 0 C6.625 -0.25 6.625 -0.25 10 2 C10.34057617 3.87939453 10.34057617 3.87939453 10.29296875 6.1328125 C10.28330078 6.93847656 10.27363281 7.74414062 10.26367188 8.57421875 C10.23853516 9.41597656 10.21339844 10.25773437 10.1875 11.125 C10.17396484 11.97449219 10.16042969 12.82398438 10.14648438 13.69921875 C10.11108219 15.79974837 10.05727401 17.89995293 10 20 C9.34 20 8.68 20 8 20 C7.63743142 18.5437328 7.28520207 17.08488815 6.9375 15.625 C6.64166016 14.40683594 6.64166016 14.40683594 6.33984375 13.1640625 C6 11 6 11 7 9 C6.34 9 5.68 9 5 9 C5 8.01 5 7.02 5 6 C3.35 5.67 1.7 5.34 0 5 C0 3.35 0 1.7 0 0 Z " fill="#1C1C1C" transform="translate(58,26)"/>
<path d="M0 0 C3.99969431 2.88866811 6.34067722 5.87346465 9 10 C9.66 10.33 10.32 10.66 11 11 C11.64906175 13.55456413 12.17255147 16.03496303 12.625 18.625 C12.7590625 19.32496094 12.893125 20.02492188 13.03125 20.74609375 C13.84718807 25.23375316 14.13163017 29.44080941 14 34 C13.34 34 12.68 34 12 34 C11.89977539 33.34402832 11.79955078 32.68805664 11.69628906 32.01220703 C11.23259819 29.04658324 10.74168299 26.08610576 10.25 23.125 C10.09273437 22.09246094 9.93546875 21.05992188 9.7734375 19.99609375 C9.60585938 19.00996094 9.43828125 18.02382813 9.265625 17.0078125 C9.11899414 16.09660645 8.97236328 15.18540039 8.82128906 14.24658203 C8.19573552 11.86688351 8.19573552 11.86688351 6.10839844 10.68701172 C3.89418542 9.84509355 3.89418542 9.84509355 1 10 C-0.60725635 6.78548731 -0.05748185 3.56387464 0 0 Z " fill="#343434" transform="translate(19,34)"/>
<path d="M0 0 C2.05078125 0.03255208 4.1015625 0.06510417 6.15234375 0.09765625 C6.15234375 1.41765625 6.15234375 2.73765625 6.15234375 4.09765625 C7.80234375 4.42765625 9.45234375 4.75765625 11.15234375 5.09765625 C9.17234375 6.08765625 9.17234375 6.08765625 7.15234375 7.09765625 C6.80333817 10.81502266 6.80333817 10.81502266 8.65234375 13.91015625 C9.14734375 14.30203125 9.64234375 14.69390625 10.15234375 15.09765625 C9.51296875 15.22140625 8.87359375 15.34515625 8.21484375 15.47265625 C7.53421875 15.67890625 6.85359375 15.88515625 6.15234375 16.09765625 C5.82234375 16.75765625 5.49234375 17.41765625 5.15234375 18.09765625 C5.15234375 14.13765625 5.15234375 10.17765625 5.15234375 6.09765625 C4.49234375 6.09765625 3.83234375 6.09765625 3.15234375 6.09765625 C3.15234375 8.07765625 3.15234375 10.05765625 3.15234375 12.09765625 C2.49234375 12.09765625 1.83234375 12.09765625 1.15234375 12.09765625 C1.15234375 9.78765625 1.15234375 7.47765625 1.15234375 5.09765625 C0.16234375 5.09765625 -0.82765625 5.09765625 -1.84765625 5.09765625 C-2.41015625 3.16015625 -2.41015625 3.16015625 -2.84765625 1.09765625 C-1.84765625 0.09765625 -1.84765625 0.09765625 0 0 Z " fill="#D6D6D6" transform="translate(11.84765625,-0.09765625)"/>
<path d="M0 0 C2.64 0 5.28 0 8 0 C8 3.3 8 6.6 8 10 C6.68 10 5.36 10 4 10 C3.67 12.97 3.34 15.94 3 19 C2.67 19 2.34 19 2 19 C1.83317728 14.07872966 1.75171948 10.49656104 4 6 C3.34 6 2.68 6 2 6 C1.67 7.32 1.34 8.64 1 10 C0 9 0 9 -0.09765625 6.93359375 C-0.08605469 6.10988281 -0.07445312 5.28617187 -0.0625 4.4375 C-0.05347656 3.61121094 -0.04445312 2.78492188 -0.03515625 1.93359375 C-0.02355469 1.29550781 -0.01195312 0.65742188 0 0 Z " fill="#CFCFCF" transform="translate(60,0)"/>
<path d="M0 0 C0.33 0 0.66 0 1 0 C1.268125 1.11375 1.53625 2.2275 1.8125 3.375 C2.65809019 7.21840951 2.65809019 7.21840951 6 9 C5.67 10.98 5.34 12.96 5 15 C4.34 15 3.68 15 3 15 C2.67 17.64 2.34 20.28 2 23 C1.34 22.67 0.68 22.34 0 22 C-1.74212994 16.59022809 -2.38694223 11.54776893 -1 6 C-0.814375 4.88625 -0.62875 3.7725 -0.4375 2.625 C-0.293125 1.75875 -0.14875 0.8925 0 0 Z " fill="#181818" transform="translate(40,36)"/>
<path d="M0 0 C0.33 0 0.66 0 1 0 C1 1.98 1 3.96 1 6 C1.99 6 2.98 6 4 6 C4 4.02 4 2.04 4 0 C4.66 0 5.32 0 6 0 C6 3.96 6 7.92 6 12 C6.66 12 7.32 12 8 12 C7.67 15.96 7.34 19.92 7 24 C6.67 24 6.34 24 6 24 C5.67 21.36 5.34 18.72 5 16 C4.01 16 3.02 16 2 16 C-0.42130331 12.36804504 -0.21022785 10.61650652 -0.125 6.3125 C-0.09792969 4.54326172 -0.09792969 4.54326172 -0.0703125 2.73828125 C-0.04710937 1.83464844 -0.02390625 0.93101562 0 0 Z " fill="#797979" transform="translate(11,6)"/>
<path d="M0 0 C1.46833933 0.38535602 2.93315469 0.78434023 4.39453125 1.1953125 C5.51891602 1.49501953 5.51891602 1.49501953 6.66601562 1.80078125 C8.5161545 2.29572286 10.36203925 2.80651726 12.20703125 3.3203125 C11.21703125 3.6503125 10.22703125 3.9803125 9.20703125 4.3203125 C9.20703125 5.6403125 9.20703125 6.9603125 9.20703125 8.3203125 C6.56703125 7.9903125 3.92703125 7.6603125 1.20703125 7.3203125 C0.87703125 7.9803125 0.54703125 8.6403125 0.20703125 9.3203125 C-0.12296875 8.3303125 -0.45296875 7.3403125 -0.79296875 6.3203125 C-0.46296875 5.6603125 -0.13296875 5.0003125 0.20703125 4.3203125 C-2.10296875 3.9903125 -4.41296875 3.6603125 -6.79296875 3.3203125 C-6.79296875 2.6603125 -6.79296875 2.0003125 -6.79296875 1.3203125 C-3.79296875 -0.6796875 -3.79296875 -0.6796875 0 0 Z " fill="#5D5D5D" transform="translate(48.79296875,21.6796875)"/>
<path d="M0 0 C0.33 0 0.66 0 1 0 C1.33 3.63 1.66 7.26 2 11 C4.97 11.495 4.97 11.495 8 12 C7.67 12.99 7.34 13.98 7 15 C4.93636888 14.54678672 2.87413493 14.08720894 0.8125 13.625 C-0.33605469 13.36976562 -1.48460937 13.11453125 -2.66796875 12.8515625 C-5.58807348 12.10527548 -8.23953389 11.19568212 -11 10 C-11 9.34 -11 8.68 -11 8 C-8 7 -8 7 -5 8 C-4.67 7.34 -4.34 6.68 -4 6 C-4 6.66 -4 7.32 -4 8 C-2.68 8 -1.36 8 0 8 C0 5.36 0 2.72 0 0 Z " fill="#F0F0F0" transform="translate(58,12)"/>
<path d="M0 0 C2 1.4375 2 1.4375 3 3 C3 3.33 3 3.66 3 4 C2.14535156 4.19335938 1.29070313 4.38671875 0.41015625 4.5859375 C-0.69457031 4.84632812 -1.79929687 5.10671875 -2.9375 5.375 C-4.03964844 5.63023438 -5.14179688 5.88546875 -6.27734375 6.1484375 C-7.17582031 6.42945313 -8.07429688 6.71046875 -9 7 C-9.33 7.66 -9.66 8.32 -10 9 C-10.66 9 -11.32 9 -12 9 C-11.67815583 6.10340247 -11.38591512 3.68102669 -9.9375 1.125 C-6.78544813 -0.70522366 -3.54642187 -0.56890517 0 0 Z " fill="#979797" transform="translate(32,20)"/>
<path d="M0 0 C2.05078125 0.03255208 4.1015625 0.06510417 6.15234375 0.09765625 C6.48234375 1.41765625 6.81234375 2.73765625 7.15234375 4.09765625 C6.36859375 4.30390625 5.58484375 4.51015625 4.77734375 4.72265625 C1.84318089 5.90442237 1.84318089 5.90442237 0.83984375 9.22265625 C0.61296875 10.17140625 0.38609375 11.12015625 0.15234375 12.09765625 C-0.50765625 11.43765625 -1.16765625 10.77765625 -1.84765625 10.09765625 C-1.84765625 8.77765625 -1.84765625 7.45765625 -1.84765625 6.09765625 C-2.50765625 6.09765625 -3.16765625 6.09765625 -3.84765625 6.09765625 C-2.77957394 0.14691194 -2.77957394 0.14691194 0 0 Z " fill="#D4D4D4" transform="translate(53.84765625,-0.09765625)"/>
<path d="M0 0 C1.33257403 9.41002278 1.33257403 9.41002278 0 14 C-0.99 14 -1.98 14 -3 14 C-3.50367757 12.54293274 -4.00282556 11.08429904 -4.5 9.625 C-4.7784375 8.81289063 -5.056875 8.00078125 -5.34375 7.1640625 C-6 5 -6 5 -6 3 C-5.01 2.67 -4.02 2.34 -3 2 C-3.99 1.67 -4.98 1.34 -6 1 C-3.92446352 0.4465236 -2.15634036 0 0 0 Z " fill="#838383" transform="translate(23,54)"/>
<path d="M0 0 C0.66 0 1.32 0 2 0 C2.66 1.32 3.32 2.64 4 4 C4.33 2.68 4.66 1.36 5 0 C5.66 0 6.32 0 7 0 C7 4.29 7 8.58 7 13 C6.67 13 6.34 13 6 13 C5.67 11.35 5.34 9.7 5 8 C4.54625 8.825 4.0925 9.65 3.625 10.5 C3.08875 11.325 2.5525 12.15 2 13 C1.34 13 0.68 13 0 13 C0 8.71 0 4.42 0 0 Z " fill="#2F2F2F" transform="translate(41,6)"/>
<path d="M0 0 C0.66 0 1.32 0 2 0 C2.66 1.32 3.32 2.64 4 4 C4.33 2.68 4.66 1.36 5 0 C5.66 0 6.32 0 7 0 C7 4.29 7 8.58 7 13 C6.34 12.01 5.68 11.02 5 10 C4.54625 10.495 4.0925 10.99 3.625 11.5 C2 13 2 13 0 13 C0 8.71 0 4.42 0 0 Z " fill="#171717" transform="translate(50,6)"/>
<path d="M0 0 C4 0 4 0 6.75 2.5 C7.86375 3.7375 7.86375 3.7375 9 5 C8.67 5.99 8.34 6.98 8 8 C9.65 8.33 11.3 8.66 13 9 C13 9.33 13 9.66 13 10 C9.37 10 5.74 10 2 10 C0.68373308 6.38026598 0 3.90432869 0 0 Z " fill="#4C4C4C" transform="translate(55,58)"/>
<path d="M0 0 C0 0.99 0 1.98 0 3 C-1.1446875 3.5878125 -1.1446875 3.5878125 -2.3125 4.1875 C-6.20926246 6.8155491 -6.62025138 9.57028074 -8 14 C-8.33 14 -8.66 14 -9 14 C-9 9.38 -9 4.76 -9 0 C-5.16380575 -0.95904856 -3.67568464 -0.91892116 0 0 Z " fill="#0C0C0C" transform="translate(27,17)"/>
<path d="M0 0 C0.33 0 0.66 0 1 0 C1.33 4.95 1.66 9.9 2 15 C0.02 15 -1.96 15 -4 15 C-3.91245449 13.24908981 -3.80426627 11.49920449 -3.6875 9.75 C-3.62949219 8.77546875 -3.57148437 7.8009375 -3.51171875 6.796875 C-2.9517383 3.73621851 -2.0962563 2.26331014 0 0 Z " fill="#262626" transform="translate(37,53)"/>
<path d="M0 0 C0 1.98 0 3.96 0 6 C-6.75 6.125 -6.75 6.125 -9 5 C-9 3.35 -9 1.7 -9 0 C-8.01 0 -7.02 0 -6 0 C-3 -1 -3 -1 0 0 Z " fill="#DBDBDB" transform="translate(29,7)"/>
<path d="M0 0 C0.99 0.495 0.99 0.495 2 1 C2.8515625 3.9140625 2.8515625 3.9140625 3.625 7.625 C3.88539062 8.83414063 4.14578125 10.04328125 4.4140625 11.2890625 C4.98883175 14.92926774 5.10400604 18.32196825 5 22 C4.34 22 3.68 22 3 22 C2.49311395 19.45953542 1.99433126 16.91791124 1.5 14.375 C1.35691406 13.66214844 1.21382812 12.94929688 1.06640625 12.21484375 C0.26950574 8.07855065 -0.16034056 4.23566321 0 0 Z " fill="#8F8F8F" transform="translate(28,46)"/>
<path d="M0 0 C0.99 1.485 0.99 1.485 2 3 C2.33 2.01 2.66 1.02 3 0 C3.66 0.33 4.32 0.66 5 1 C5 4.96 5 8.92 5 13 C3.33333333 13 1.66666667 13 0 13 C0 8.71 0 4.42 0 0 Z " fill="#141414" transform="translate(4,6)"/>
<path d="M0 0 C0.08076963 2.45898655 0.14037143 4.91533742 0.1875 7.375 C0.21263672 8.07367188 0.23777344 8.77234375 0.26367188 9.4921875 C0.29296875 11.5234375 0.29296875 11.5234375 0 15 C-0.99 15.66 -1.98 16.32 -3 17 C-3 11.72 -3 6.44 -3 1 C-1 0 -1 0 0 0 Z " fill="#E0E0E0" transform="translate(3,5)"/>
<path d="M0 0 C0.33 0 0.66 0 1 0 C1.309375 1.11375 1.61875 2.2275 1.9375 3.375 C2.82326483 6.7945155 2.82326483 6.7945155 4 9 C3.34 9 2.68 9 2 9 C2.33 9.99 2.66 10.98 3 12 C2.01 12.99 1.02 13.98 0 15 C0 14.01 0 13.02 0 12 C-0.66 12 -1.32 12 -2 12 C-1.33333333 8 -0.66666667 4 0 0 Z " fill="#242424" transform="translate(40,36)"/>
<path d="M0 0 C2.3129482 2.3129482 2.49580975 3.47904875 3.125 6.625 C3.29257813 7.44226562 3.46015625 8.25953125 3.6328125 9.1015625 C3.81457031 10.04128906 3.81457031 10.04128906 4 11 C1.13275314 10.42655063 0.1385485 10.1385485 -2 8 C-1.67 7.67 -1.34 7.34 -1 7 C-1.66 6.34 -2.32 5.68 -3 5 C-2.34 4.67 -1.68 4.34 -1 4 C-1.33 3.01 -1.66 2.02 -2 1 C-1.34 0.67 -0.68 0.34 0 0 Z " fill="#E6E6E6" transform="translate(63,37)"/>
<path d="M0 0 C1.32 0 2.64 0 4 0 C3.67 0.99 3.34 1.98 3 3 C2.67 2.67 2.34 2.34 2 2 C1.67 3.32 1.34 4.64 1 6 C2.65 6.33 4.3 6.66 6 7 C5 10 5 10 2.9375 11.1875 C2.298125 11.455625 1.65875 11.72375 1 12 C0.34 11.34 -0.32 10.68 -1 10 C-0.01 9.34 0.98 8.68 2 8 C1.01 7.34 0.02 6.68 -1 6 C-1.25 3.4375 -1.25 3.4375 -1 1 C-0.67 0.67 -0.34 0.34 0 0 Z " fill="#1A1A1A" transform="translate(19,6)"/>
<path d="M0 0 C-0.33 1.98 -0.66 3.96 -1 6 C-3.31 6 -5.62 6 -8 6 C-8 4.68 -8 3.36 -8 2 C-2.25 0 -2.25 0 0 0 Z " fill="#CDCDCD" transform="translate(8,62)"/>
<path d="M0 0 C2.87579981 4.31369972 4 7.80734761 4 13 C3.01 13 2.02 13 1 13 C-0.00496852 9.98509443 -0.10335303 7.95818308 -0.0625 4.8125 C-0.05347656 3.91144531 -0.04445312 3.01039062 -0.03515625 2.08203125 C-0.02355469 1.39496094 -0.01195312 0.70789062 0 0 Z " fill="#303030" transform="translate(44,55)"/>
<path d="M0 0 C0.66 0 1.32 0 2 0 C2.33 0.99 2.66 1.98 3 3 C3.33 2.01 3.66 1.02 4 0 C4.66 0 5.32 0 6 0 C5.34 4.29 4.68 8.58 4 13 C3.34 13 2.68 13 2 13 C1.34 8.71 0.68 4.42 0 0 Z " fill="#2B2B2B" transform="translate(58,6)"/>
<path d="M0 0 C0.99 0 1.98 0 3 0 C3 3.63 3 7.26 3 11 C2.01 10.67 1.02 10.34 0 10 C0 6.7 0 3.4 0 0 Z " fill="#CACACA" transform="translate(35,7)"/>
<path d="M0 0 C1.99954746 -0.04254356 4.00041636 -0.04080783 6 0 C7 1 7 1 7.09765625 3.06640625 C7.08605469 3.89011719 7.07445312 4.71382812 7.0625 5.5625 C7.05347656 6.38878906 7.04445313 7.21507812 7.03515625 8.06640625 C7.01775391 9.02353516 7.01775391 9.02353516 7 10 C6.01 9.67 5.02 9.34 4 9 C4 6.69 4 4.38 4 2 C2.68 1.34 1.36 0.68 0 0 Z " fill="#C3C3C3" transform="translate(27,5)"/>
<path d="M0 0 C0.33 0 0.66 0 1 0 C1.18451025 10.55808656 1.18451025 10.55808656 0 15 C-0.99 15 -1.98 15 -3 15 C-3 14.01 -3 13.02 -3 12 C-2.34 12 -1.68 12 -1 12 C-1 11.34 -1 10.68 -1 10 C-1.99 9.67 -2.98 9.34 -4 9 C-3.34 8.67 -2.68 8.34 -2 8 C-1.31527335 6.11235097 -1.31527335 6.11235097 -0.875 3.9375 C-0.70742188 3.20402344 -0.53984375 2.47054687 -0.3671875 1.71484375 C-0.24601562 1.14894531 -0.12484375 0.58304688 0 0 Z " fill="#0B0B0B" transform="translate(36,32)"/>
<path d="M0 0 C0.33 0 0.66 0 1 0 C1 2.31 1 4.62 1 7 C0.01 7.495 0.01 7.495 -1 8 C-0.67 5.36 -0.34 2.72 0 0 Z M-4 6 C-2.4375 7 -2.4375 7 -1 9 C-1.03273548 11.76614782 -1.50595672 14.26030547 -2 17 C-4.32590854 13.36576791 -4.16265833 10.22911669 -4 6 Z " fill="#0D0D0D" transform="translate(36,48)"/>
<path d="M0 0 C0.66 0.33 1.32 0.66 2 1 C2 3.64 2 6.28 2 9 C1.67 8.34 1.34 7.68 1 7 C0.01 7 -0.98 7 -2 7 C-2.33 7.99 -2.66 8.98 -3 10 C-3.625 8.125 -3.625 8.125 -4 6 C-3.34 5.34 -2.68 4.68 -2 4 C-1.30251417 2.68252676 -0.63040043 1.35085807 0 0 Z " fill="#2E2E2E" transform="translate(46,45)"/>
<path d="M0 0 C0.33 1.32 0.66 2.64 1 4 C-0.98 4.66 -2.96 5.32 -5 6 C-5.33 5.01 -5.66 4.02 -6 3 C-3.375 0 -3.375 0 0 0 Z " fill="#DDDDDD" transform="translate(60,0)"/>
<path d="M0 0 C0.66 0 1.32 0 2 0 C2.33 2.97 2.66 5.94 3 9 C1.68 9 0.36 9 -1 9 C-0.67 6.03 -0.34 3.06 0 0 Z " fill="#1C1C1C" transform="translate(34,59)"/>
<path d="M0 0 C1.7074998 1.28062485 3.37373596 2.61767557 5 4 C5 4.66 5 5.32 5 6 C4.34 6 3.68 6 3 6 C2.67 6.66 2.34 7.32 2 8 C1.34 8 0.68 8 0 8 C0 5.36 0 2.72 0 0 Z " fill="#3B3B3B" transform="translate(19,34)"/>
<path d="M0 0 C0.99 0 1.98 0 3 0 C3 0.66 3 1.32 3 2 C5.31 2.33 7.62 2.66 10 3 C9.67 3.66 9.34 4.32 9 5 C6.03 4.505 6.03 4.505 3 4 C2.67 4.66 2.34 5.32 2 6 C1.67 5.01 1.34 4.02 1 3 C1.33 2.34 1.66 1.68 2 1 C1.34 0.67 0.68 0.34 0 0 Z " fill="#A6A6A6" transform="translate(47,25)"/>
<path d="M0 0 C0.66 0.33 1.32 0.66 2 1 C1.34 3.64 0.68 6.28 0 9 C-0.99 8.34 -1.98 7.68 -3 7 C-1.125 1.125 -1.125 1.125 0 0 Z " fill="#232323" transform="translate(35,47)"/>
<path d="M0 0 C0.33 0 0.66 0 1 0 C1 2.64 1 5.28 1 8 C0.01 7.34 -0.98 6.68 -2 6 C-2 5.34 -2 4.68 -2 4 C-2.66 4 -3.32 4 -4 4 C-3.67 3.01 -3.34 2.02 -3 1 C-2.01 1.33 -1.02 1.66 0 2 C0 1.34 0 0.68 0 0 Z " fill="#141414" transform="translate(67,31)"/>
<path d="M0 0 C1.32 0 2.64 0 4 0 C4 0.66 4 1.32 4 2 C4.66 2.33 5.32 2.66 6 3 C5.360625 3.12375 4.72125 3.2475 4.0625 3.375 C3.381875 3.58125 2.70125 3.7875 2 4 C1.67 4.66 1.34 5.32 1 6 C0.34 6 -0.32 6 -1 6 C-0.67 4.02 -0.34 2.04 0 0 Z " fill="#808080" transform="translate(21,23)"/>
<path d="M0 0 C0.33 0 0.66 0 1 0 C3.42857143 8.42857143 3.42857143 8.42857143 2 13 C1.34 13 0.68 13 0 13 C0 8.71 0 4.42 0 0 Z " fill="#4D4D4D" transform="translate(50,6)"/>
<path d="M0 0 C0.33 0 0.66 0 1 0 C1.103125 0.763125 1.20625 1.52625 1.3125 2.3125 C2.04364039 5.17059424 2.76951913 6.15742885 5 8 C4.360625 8.12375 3.72125 8.2475 3.0625 8.375 C2.381875 8.58125 1.70125 8.7875 1 9 C0.67 9.66 0.34 10.32 0 11 C0 7.37 0 3.74 0 0 Z " fill="#E4E4E4" transform="translate(17,7)"/>
<path d="M0 0 C2.475 0.99 2.475 0.99 5 2 C4.67 2.66 4.34 3.32 4 4 C4.99 4.66 5.98 5.32 7 6 C5.35 6.33 3.7 6.66 2 7 C1.01 5.02 0.02 3.04 -1 1 C-0.67 0.67 -0.34 0.34 0 0 Z " fill="#2C2C2C" transform="translate(14,49)"/>
<path d="M0 0 C1.85776765 3.13498292 2.20140476 5.37471432 2 9 C0.66666667 9 -0.66666667 9 -2 9 C-2 7.35 -2 5.7 -2 4 C-1.34 4 -0.68 4 0 4 C0 2.68 0 1.36 0 0 Z " fill="#6C6C6C" transform="translate(7,10)"/>
<path d="M0 0 C0.66 0 1.32 0 2 0 C2.33 1.98 2.66 3.96 3 6 C2.67 6 2.34 6 2 6 C1.67 8.31 1.34 10.62 1 13 C0.67 13 0.34 13 0 13 C0 8.71 0 4.42 0 0 Z " fill="#020202" transform="translate(41,6)"/>
<path d="M0 0 C0 2.31 0 4.62 0 7 C-0.99 7 -1.98 7 -3 7 C-3.6875 5.1875 -3.6875 5.1875 -4 3 C-1.64285714 0 -1.64285714 0 0 0 Z " fill="#5D5D5D" transform="translate(23,61)"/>
<path d="M0 0 C3.875 1.875 3.875 1.875 5 3 C5.04080783 4.99958364 5.04254356 7.00045254 5 9 C4.67 9 4.34 9 4 9 C3.67 7.35 3.34 5.7 3 4 C2.01 4 1.02 4 0 4 C-0.33 3.01 -0.66 2.02 -1 1 C-0.67 0.67 -0.34 0.34 0 0 Z " fill="#0F0F0F" transform="translate(23,43)"/>
<path d="M0 0 C1.74627478 2.61941217 2.38722388 4.03824877 3 7 C2.01 7.495 2.01 7.495 1 8 C-0.66666667 6.33333333 -2.33333333 4.66666667 -4 3 C-3.01 2.67 -2.02 2.34 -1 2 C-0.67 1.34 -0.34 0.68 0 0 Z " fill="#545454" transform="translate(37,21)"/>
<path d="M0 0 C2 3 2 3 2 6 C0.68 6 -0.64 6 -2 6 C-1.125 1.125 -1.125 1.125 0 0 Z " fill="#181818" transform="translate(43,62)"/>
<path d="M0 0 C0.33 0 0.66 0 1 0 C1.08121924 1.60332791 1.13929134 3.20784026 1.1875 4.8125 C1.23970703 6.15248047 1.23970703 6.15248047 1.29296875 7.51953125 C0.95081002 10.41647515 0.24606427 11.22555028 -2 13 C-2 11.35 -2 9.7 -2 8 C-1.34 8 -0.68 8 0 8 C0 5.36 0 2.72 0 0 Z " fill="#676767" transform="translate(38,34)"/>
<path d="M0 0 C1.0326802 2.78823655 1.04509293 3.8677274 0.0625 6.75 C-0.288125 7.4925 -0.63875 8.235 -1 9 C-1.33 9 -1.66 9 -2 9 C-2 6.36 -2 3.72 -2 1 C-1.34 0.67 -0.68 0.34 0 0 Z " fill="#D8D8D8" transform="translate(2,5)"/>
<path d="M0 0 C0.99 0.495 0.99 0.495 2 1 C2.75 3.9375 2.75 3.9375 3 7 C2.34 7.66 1.68 8.32 1 9 C0.67 6.03 0.34 3.06 0 0 Z " fill="#7D7D7D" transform="translate(28,46)"/>
<path d="M0 0 C1.74627478 2.61941217 2.38722388 4.03824877 3 7 C0.13275314 6.42655063 -0.8614515 6.1385485 -3 4 C-2.01 4 -1.02 4 0 4 C0 2.68 0 1.36 0 0 Z " fill="#D2D2D2" transform="translate(64,41)"/>
</svg>
